<svg width="900" height="760" viewBox="0 0 900 760" fill="none" xmlns="http://www.w3.org/2000/svg">
  <rect width="900" height="760" rx="48" fill="#FFF7F2"/>
  <circle cx="700" cy="154" r="146" fill="#FBD6D6"/>
  <circle cx="170" cy="676" r="92" fill="#111111" fill-opacity="0.06"/>
  <rect x="44" y="44" width="812" height="672" rx="40" stroke="#111111" stroke-opacity="0.08" stroke-width="2"/>
  <defs>
    <filter id="shadow" x="0" y="0" width="900" height="760" filterUnits="userSpaceOnUse" color-interpolation-filters="sRGB">
      <feFlood flood-opacity="0" result="BackgroundImageFix"/>
      <feColorMatrix in="SourceAlpha" type="matrix" values="0 0 0 0 0 0 0 0 0 0 0 0 0 0 0 0 0 0 127 0" result="hardAlpha"/>
      <feOffset dy="24"/>
      <feGaussianBlur stdDeviation="20"/>
      <feComposite in2="hardAlpha" operator="out"/>
      <feColorMatrix type="matrix" values="0 0 0 0 0.0666667 0 0 0 0 0.0666667 0 0 0 0 0.0666667 0 0 0 0.12 0"/>
      <feBlend mode="normal" in2="BackgroundImageFix" result="effect1_dropShadow_1_1"/>
      <feBlend mode="normal" in="SourceGraphic" in2="effect1_dropShadow_1_1" result="shape"/>
    </filter>
  </defs>
  <g filter="url(#shadow)">
    <rect x="78" y="118" width="336" height="504" rx="34" fill="white"/>
    <rect x="108" y="152" width="276" height="324" rx="28" fill="#FFF0F0"/>
    <path d="M173 263C173 234.281 196.281 211 225 211H267C295.719 211 319 234.281 319 263V403C319 431.719 295.719 455 267 455H225C196.281 455 173 431.719 173 403V263Z" fill="#D62828"/>
    <path d="M214 259C214 232.49 235.49 211 262 211V211C288.51 211 310 232.49 310 259" stroke="white" stroke-width="18" stroke-linecap="round"/>
    <rect x="137" y="498" width="218" height="16" rx="8" fill="#111111" fill-opacity="0.08"/>
    <rect x="137" y="530" width="164" height="14" rx="7" fill="#111111" fill-opacity="0.08"/>
    <rect x="454" y="116" width="366" height="214" rx="34" fill="white"/>
    <rect x="484" y="152" width="122" height="122" rx="24" fill="#111111"/>
    <path d="M516 228C529.255 205.921 560.356 198.187 582 211.5C560.779 235.834 536.361 253.7 516 228Z" fill="#FFF0F0"/>
    <rect x="632" y="164" width="150" height="18" rx="9" fill="#111111" fill-opacity="0.12"/>
    <rect x="632" y="198" width="116" height="14" rx="7" fill="#111111" fill-opacity="0.1"/>
    <rect x="632" y="238" width="84" height="38" rx="19" fill="#D62828"/>
    <rect x="454" y="360" width="172" height="220" rx="34" fill="white"/>
    <circle cx="540" cy="440" r="54" fill="#FFF0F0"/>
    <path d="M504 451L520 417H562L576 451C576 468.673 561.673 483 544 483H536C518.327 483 504 468.673 504 451Z" fill="#111111"/>
    <rect x="490" y="522" width="98" height="14" rx="7" fill="#111111" fill-opacity="0.08"/>
    <rect x="648" y="360" width="172" height="220" rx="34" fill="white"/>
    <path d="M690 417C690 392.147 710.147 372 735 372H742C766.853 372 787 392.147 787 417V460H690V417Z" fill="#D62828"/>
    <path d="M711 417C711 404.297 721.297 394 734 394H742C754.703 394 765 404.297 765 417" stroke="white" stroke-width="12" stroke-linecap="round"/>
    <rect x="682" y="504" width="104" height="14" rx="7" fill="#111111" fill-opacity="0.08"/>
  </g>
  <rect x="116" y="94" width="148" height="42" rx="21" fill="white"/>
  <circle cx="139" cy="115" r="8" fill="#D62828"/>
  <rect x="158" y="108" width="80" height="14" rx="7" fill="#111111" fill-opacity="0.14"/>
  <rect x="604" y="604" width="220" height="66" rx="30" fill="#111111"/>
  <rect x="628" y="624" width="76" height="12" rx="6" fill="white" fill-opacity="0.8"/>
  <rect x="714" y="624" width="86" height="12" rx="6" fill="#D62828"/>
</svg>
